Coordinates
version=1
nRows=17
nColumns=33
inDegrees=yes

Units are S.I. units (second, meters, Newtons, ...)
Angles are in degrees.

endheader
time	ground_thorax_rot_x	ground_thorax_rot_y	ground_thorax_rot_z	ground_thorax_tx	ground_thorax_ty	ground_thorax_tz	clav_prot_r	clav_elev_r	scapula_abduction_r	scapula_elevation_r	scapula_upward_rot_r	scapula_winging_r	shoulder_elv_r	plane_of_elev_r	axial_rot_r	elbow_flexion_r	pro_sup_r	wrist_flex_r	wrist_dev_r	clav_prot_l	clav_elev_l	scapula_abduction_l	scapula_elevation_l	scapula_upward_rot_l	scapula_winging_l	shoulder_elv_l	plane_of_elev_l	axial_rot_l	elbow_flexion_l	pro_sup_l	wrist_flex_l	wrist_dev_l
      0.83000000	     -1.02890239	      5.63745762	     -8.84525152	     -0.08111268	      1.01791850	     -0.00326716	     -6.86277524	    -16.64253521	     -6.65780146	     -9.12542554	      1.70084885	      5.84660210	     37.48172917	      0.87739177	      0.33332668	     91.38973541	     16.23028043	     15.95995335	     -3.82561003	      7.76819730	     -9.24633479	    -15.79529549	     -0.65425337	     -7.63240744	      3.05945508	     39.51482510	     18.67495431	     -3.19653140	     92.66493971	     15.84505967	     -7.30250885	    -14.07628600
      0.84000000	     -0.91380175	      5.37482680	     -8.98414152	     -0.08115516	      1.01804662	     -0.00340894	     -6.62108073	    -16.37734132	     -6.05392934	     -9.01602458	      2.13151707	      5.53973332	     37.55969604	      1.41232662	     -0.25338826	     91.67413849	     16.12215268	     15.85074330	     -3.86458596	      7.64671236	     -9.45205825	    -15.60954504	     -0.45208209	     -7.59098492	      2.91031451	     39.78415288	     18.95416489	     -3.19150510	     94.30146967	     13.61146361	     -5.99140631	    -10.69974781
      0.85000000	     -0.84579735	      5.30671568	     -8.55578549	     -0.08145627	      1.01818364	     -0.00400099	     -6.12469750	    -15.69309432	     -5.10699754	     -8.45101803	      2.43925542	      4.92681008	     37.57834507	      1.44782590	     -0.87347507	     92.21784328	     16.03372802	     15.77230972	     -3.86967782	      7.21036541	     -9.29475542	    -14.71502373	     -0.75811645	     -8.00223553	      2.57286038	     39.95352811	     21.22251630	     -1.51379286	     89.26279234	     15.49451878	     -2.52649719	    -24.78280722
      0.86000000	     -0.91954007	      5.16682265	     -8.15637557	     -0.08178854	      1.01891504	     -0.00411798	     -6.17342560	    -15.71106756	     -5.11200869	     -8.52584078	      2.58998635	      4.92468522	     37.66457474	      1.59929675	     -0.95247120	     92.34291852	     16.02483996	     15.79482292	     -3.88575032	      7.20335714	     -9.36218436	    -14.75862376	     -0.63072191	     -7.83954224	      2.57726621	     40.01277301	     21.44471321	     -1.52035458	     89.35024522	     15.49071830	     -2.53260535	    -24.80032553
      0.87000000	     -1.08844099	      4.86164718	     -8.22419803	     -0.08218130	      1.01825024	     -0.00500672	     -5.55281423	    -15.37881490	     -3.83239413	     -8.35890732	      3.08344723	      4.42802137	     37.81476956	      1.86173786	     -1.88052720	     92.80607509	     15.70789156	     15.56741630	     -3.97462959	      6.76437181	     -8.22856074	    -14.15187609	     -1.38647365	     -7.20352123	      2.75766811	     38.97819398	     24.46845997	      0.93802661	     87.82600589	      6.18267356	     13.29091629	    -24.99999983
      0.88000000	     -0.46838137	      4.65862951	     -8.24842837	     -0.08215628	      1.01970242	     -0.00441854	     -5.05809541	    -14.76939539	     -2.65704219	     -8.03287429	      3.83572537	      3.77448746	     37.97046671	      1.87864371	     -2.58772917	     93.40106821	     15.97507429	     15.69365935	     -3.89363243	      6.84526402	    -10.05295123	    -14.27050499	      0.11710381	     -7.53982209	      2.14024392	     40.31230804	     22.45812285	     -1.62242727	     89.57224297	     12.51696268	     -1.79164456	    -24.24529550
      0.89000000	     -0.43973905	      4.35368580	     -7.94576257	     -0.08235153	      1.02017442	     -0.00459596	     -5.10161088	    -14.81516092	     -2.55656073	     -8.19923784	      4.17510128	      3.75002907	     38.27964670	      2.08899237	     -2.44823999	     93.57234916	     16.00574597	     15.73861186	     -3.83823164	      6.82142264	     -9.96722988	    -14.24787018	      0.06724010	     -7.47188741	      2.16679928	     40.23481455	     22.96067791	     -1.48723927	     89.82720644	     12.66674126	     -1.82040949	    -24.34541692
      0.90000000	     -0.52660861	      4.20835437	     -7.50696970	     -0.08273956	      1.02097507	     -0.00471699	     -5.15675384	    -14.82331537	     -2.56492376	     -8.26977018	      4.34258920	      3.74792700	     38.37247463	      2.24690956	     -2.54603209	     93.70469870	     15.99385640	     15.75987338	     -3.85807913	      6.80804154	    -10.03064311	    -14.29155485	      0.20057462	     -7.28590959	      2.17150432	     40.31195961	     23.20585236	     -1.50129023	     89.90143904	     12.67161169	     -1.82289145	    -24.36163655
      0.91000000	     -1.31073047	      4.27738903	     -7.72903548	     -0.08266476	      1.01869672	     -0.00665000	     -5.11574253	    -14.67749400	     -2.29755421	     -8.27404887	      4.74766525	      3.57236432	     38.19526792	      2.76166773	     -3.56435336	     94.24221819	     15.85254419	     15.48375780	     -3.65009943	      7.42542557	    -13.02802987	    -13.60908295	      0.42183523	    -13.34071017	      0.44093077	     42.56019256	     38.07853714	    -12.16177446	     65.80544756	     94.69303502	    -70.00000021	     35.00000010
      0.92000000	     -1.26449218	      4.63597250	     -7.42045582	     -0.08365590	      1.01953977	     -0.00698389	     -5.30236037	    -14.52951976	     -2.47784241	     -8.24814834	      5.04076661	      3.50506512	     38.33865754	      2.80491474	     -4.01584145	     94.60384522	     15.75691877	     15.50574226	     -3.76594495	      6.95405158	    -11.58518423	    -12.86722572	     -0.78139486	    -13.08161547	      0.70714754	     42.95128562	     37.81563666	    -12.37766839	     70.85227232	     92.71524136	    -70.00000021	     34.99478800
      0.93000000	     -1.07941114	      4.00700725	     -7.41767898	     -0.08375216	      1.02049771	     -0.00696322	     -4.95922423	    -14.56793667	     -1.51405362	     -8.52061320	      5.75690426	      3.26399051	     38.78828757	      2.88989099	     -4.16009656	     94.79486865	     15.81495128	     15.47471018	     -3.66830754	      5.80144743	    -10.73995966	    -11.20398063	     -0.99001965	    -11.78280077	      0.41876677	     42.52329122	     35.73311116	    -10.33815106	     76.61203620	     83.18977407	    -57.42803228	     19.10349728
      0.94000000	     -0.97908715	      4.02709815	     -7.29025607	     -0.08437461	      1.02088567	     -0.00690823	     -4.29300812	    -13.85530893	     -0.05319382	     -8.07985332	      6.47979450	      2.48102109	     38.61398914	      2.67214306	     -5.34299069	     95.53328809	     15.96810244	     15.48689962	     -3.80178077	      5.93796908	     -9.86129270	    -11.95730088	     -0.99635996	     -9.86355280	      1.14830568	     41.63824213	     33.88508710	     -8.17704299	     79.67798061	     63.06520011	    -50.09843004	     -3.05152499
      0.95000000	     -1.08924052	      3.97571908	     -7.28153488	     -0.08372387	      1.02195518	     -0.00690439	     -4.52235668	    -13.93735076	     -0.19829956	     -8.32113185	      6.92714116	      2.52820817	     38.45769575	      2.85159175	     -5.75265642	     95.96655587	     16.06969322	     15.52034983	     -3.68996660	      5.59477248	     -9.98157687	    -11.59275201	     -0.58195392	     -9.13506834	      1.00869928	     42.10547195	     32.67698784	     -7.02464891	     83.41762378	     53.87089632	    -37.51084841	    -11.19040309
      0.96000000	     -0.81526387	      3.99663141	     -7.12882543	     -0.08418456	      1.02189412	     -0.00735406	     -4.36673347	    -13.36797805	      0.37774746	     -8.01802649	      7.59364972	      2.03143784	     38.84436166	      2.97401864	     -6.12907736	     96.49363023	     16.15268850	     15.61268986	     -3.75466118	      5.95036057	     -9.62542675	    -12.40015786	     -0.64018102	     -8.47594115	      1.49596184	     41.45251744	     32.69933768	     -6.12265760	     85.15717013	     42.95723445	    -28.89604797	    -16.45192366
      0.97000000	     -1.01225380	      3.63188217	     -6.77257943	     -0.08454282	      1.02217318	     -0.00723642	     -4.26281988	    -13.16886197	      0.76910708	     -7.97795496	      8.01686251	      1.80293495	     38.61616631	      3.38894055	     -6.44354204	     96.58618375	     16.29701655	     15.55739308	     -3.63599876	      6.00732215	     -9.11974007	    -12.63469052	     -0.89411900	     -7.97552804	      1.79509186	     41.38055337	     32.71574916	     -5.42775244	     86.51315888	     35.85659296	    -23.46312363	    -19.32123081
      0.98000000	     -1.09045307	      3.52466428	     -6.73543804	     -0.08482886	      1.02258758	     -0.00739559	     -4.20928862	    -12.88263828	      1.12500015	     -7.88902733	      8.54741935	      1.51669426	     38.67689008	      3.72871982	     -6.88163972	     96.88717152	     16.41766847	     15.59719264	     -3.61558396	      6.04680678	     -9.05899370	    -12.87867962	     -0.72848350	     -7.43602816	      1.94675700	     41.59314263	     32.95434941	     -5.11904347	     87.39998030	     30.99317684	    -19.50803905	    -20.55864693
      0.99000000	     -1.10817913	      3.42484398	     -6.61337589	     -0.08499926	      1.02288047	     -0.00767913	     -4.13982495	    -12.58872182	      1.48579022	     -7.78104185	      9.03045584	      1.24265044	     38.74515342	      4.01917118	     -7.39627926	     97.27171151	     16.51693321	     15.65104725	     -3.63349204	      6.09619208	     -8.94041395	    -13.07411042	     -0.69610185	     -7.09301141	      2.08961795	     41.59706372	     33.45729665	     -4.85827379	     88.39682041	     26.61306048	    -15.57025922	    -20.34888875
